<!-- Generated by IcoMoon.io -->
<svg version="1.1" xmlns="http://www.w3.org/2000/svg" width="1024" height="1024" viewBox="0 0 1024 1024">
<title></title>
<g id="icomoon-ignore">
</g>
<path d="M964.949 1008.981c-14.848 0-29.696-5.461-40.96-16.555l-239.445-231.424c-73.728 54.272-163.328 83.797-257.365 83.797-235.52 0-427.179-186.197-427.179-414.891s191.659-414.891 427.179-414.891 427.179 186.027 427.179 414.891c0 90.795-29.867 177.152-84.992 248.491l236.715 228.864c23.552 22.699 24.064 60.075 1.536 83.627-11.776 11.947-27.307 18.091-42.667 18.091zM427.179 133.291c-170.325 0-308.907 133.12-308.907 296.619s138.581 296.619 308.907 296.619c82.944 0 160.597-31.061 218.965-87.381 0.171-0.171 0.341-0.341 0.341-0.341 57.856-55.979 89.6-130.048 89.6-208.896-0.171-163.499-138.581-296.619-308.907-296.619z"></path>
</svg>
